<?xml version="1.0" encoding="UTF-8" standalone="no"?>
<!DOCTYPE svg PUBLIC "-//W3C//DTD SVG 1.1//EN" "http://www.w3.org/Graphics/SVG/1.1/DTD/svg11.dtd">
<svg version="1.1" viewBox="52,504,20,20" width="20" height="20" xmlns="http://www.w3.org/2000/svg" xmlns:xlink="http://www.w3.org/1999/xlink"><path d="M72,514 C72,519.523,67.5228,524,62,524 C56.4772,524,52,519.523,52,514 C52,508.477,56.4772,504,62,504 C67.5228,504,72,508.477,72,514 Z"/><path fill="#fff" d="M70.3333,514 C70.3333,518.602,66.6024,522.333,62,522.333 C57.3976,522.333,53.6667,518.602,53.6667,514 C53.6667,509.398,57.3976,505.667,62,505.667 C66.6024,505.667,70.3333,509.398,70.3333,514 Z"/><path fill="#06f" d="M61.0054,517.127 L63.161,517.127 L63.161,519.217 L61.0054,519.217 Z M58.365,511.918 Q58.4518,509.857,59.8045,508.996 Q60.6581,508.446,61.9023,508.446 Q63.5372,508.446,64.6186,509.228 Q65.7001,510.009,65.7001,511.542 Q65.7001,512.483,65.2299,513.127 Q64.955,513.517,64.1738,514.125 L63.6602,514.523 Q63.2406,514.848,63.1032,515.282 Q63.0163,515.557,63.0091,516.136 L61.056,516.136 Q61.0994,514.913,61.2875,514.447 Q61.4755,513.98,62.2568,513.372 L62.7849,512.96 Q63.0453,512.765,63.2044,512.533 Q63.4938,512.135,63.4938,511.658 Q63.4938,511.108,63.1719,510.656 Q62.85,510.204,61.9964,510.204 Q61.1573,510.204,60.8064,510.761 Q60.4556,511.318,60.4556,511.918 Z"/></svg>
