<?xml version="1.0" encoding="UTF-8" standalone="no"?>
<!DOCTYPE svg PUBLIC "-//W3C//DTD SVG 1.1//EN" "http://www.w3.org/Graphics/SVG/1.1/DTD/svg11.dtd">
<!--Generated by Intaglio, www.PurgatoryDesign.com-->
<svg version="1.1" viewBox="10,11,1094,1297" width="1094" height="1297" xmlns="http://www.w3.org/2000/svg" xmlns:xlink="http://www.w3.org/1999/xlink"><path fill="#fff" d="M12,468 L732,468 L732,888 L12,888 L12,468 Z"/><path fill="#f88" fill-rule="evenodd" d="M708,876 L468,876 C461.373,876,456,870.627,456,864 L456,768 C456,761.373,461.373,756,468,756 L708,756 C714.627,756,720,761.373,720,768 L720,864 C720,870.627,714.627,876,708,876 Z"/><path fill="#fb8" fill-rule="evenodd" d="M660,744 L468,744 C461.373,744,456,738.627,456,732 L456,636 C456,629.373,461.373,624,468,624 L660,624 C666.627,624,672,629.373,672,636 L672,732 C672,738.627,666.627,744,660,744 Z"/><path fill="#6c6" d="M624,612 L468,612 C461.373,612,456,606.627,456,600 L456,504 C456,497.373,461.373,492,468,492 L624,492 C630.627,492,636,497.373,636,504 L636,600 C636,606.627,630.627,612,624,612 Z"/><path fill="#fff" stroke="#000" d="M312,348 L24,348 L24,12 L312,12 L312,348 Z"/><path fill="#fff" stroke="#000" d="M324,336 C324,342.627,318.627,348,312,348 C305.373,348,300,342.627,300,336 C300,329.373,305.373,324,312,324 C318.627,324,324,329.373,324,336 Z"/><path fill="#fff" stroke="#000" d="M324,24 C324,30.6274,318.627,36,312,36 C305.373,36,300,30.6274,300,24 C300,17.3726,305.373,12,312,12 C318.627,12,324,17.3726,324,24 Z"/><path fill="#fff" stroke="#000" d="M36,24 C36,30.6274,30.6274,36,24,36 C17.3726,36,12,30.6274,12,24 C12,17.3726,17.3726,12,24,12 C30.6274,12,36,17.3726,36,24 Z"/><path fill="#fff" stroke="#000" d="M36,336 C36,342.627,30.6274,348,24,348 C17.3726,348,12,342.627,12,336 C12,329.373,17.3726,324,24,324 C30.6274,324,36,329.373,36,336 Z"/><path fill="#fff" stroke="#000" d="M324,336 L12,336 L12,24 L324,24 L324,336 Z"/><path fill="#fff" fill-rule="evenodd" stroke="#000" d="M648,348 L360,348 L360,348 C353.373,348,348,342.627,348,336 L348,24 L348,24 C348,17.3726,353.373,12,360,12 L648,12 L648,12 C654.627,12,660,17.3726,660,24 L660,336 L660,336 C660,342.627,654.627,348,648,348 Z"/><path fill="#fff" fill-rule="evenodd" stroke="#000" d="M1044,348 L756,348 L756,348 C749.373,348,744,342.627,744,336 L744,24 L744,24 C744,17.3726,749.373,12,756,12 L1044,12 L1044,12 C1050.63,12,1056,17.3726,1056,24 L1056,336 L1056,336 C1056,342.627,1050.63,348,1044,348 Z"/><path fill="none" stroke="#000" stroke-width="24" stroke-linecap="round" d="M84,372 L24,432"/><path fill="#fff" stroke="#000" d="M171.515,363.515 L111.515,423.515 C106.828,428.201,106.828,435.799,111.515,440.485 C116.201,445.172,123.799,445.172,128.485,440.485 L188.485,380.485 C193.172,375.799,193.172,368.201,188.485,363.515 C183.799,358.828,176.201,358.828,171.515,363.515"/><path fill="#fff" stroke="#000" d="M747.515,15.5147 L687.515,75.5147 C682.828,80.201,682.828,87.799,687.515,92.4853 C692.201,97.1716,699.799,97.1716,704.485,92.4853 L764.485,32.4853 C769.172,27.799,769.172,20.201,764.485,15.5147 C759.799,10.8284,752.201,10.8284,747.515,15.5147"/><path fill="#fff" stroke="#000" d="M1044,336 L984,396 L984,84 L696,84 L756,24 L1044,24 L1044,336 Z"/><path fill="#fff" fill-rule="evenodd" stroke="#000" d="M984,408 L696,408 L696,408 C689.373,408,684,402.627,684,396 L684,84 L684,84 C684,77.3726,689.373,72,696,72 L984,72 L984,72 C990.627,72,996,77.3726,996,84 L996,396 L996,396 C996,402.627,990.627,408,984,408 Z"/><path fill="#b8f" fill-rule="evenodd" d="M384,816 L96,816 L96,816 C89.3726,816,84,810.627,84,804 L84,492 L84,492 C84,485.373,89.3726,480,96,480 L384,480 L384,480 C390.627,480,396,485.373,396,492 L396,804 L396,804 C396,810.627,390.627,816,384,816 Z"/><path fill="#b8f" d="M87.5147,483.515 L27.5147,543.515 C22.8284,548.201,22.8284,555.799,27.5147,560.485 C32.201,565.172,39.799,565.172,44.4853,560.485 L104.485,500.485 C109.172,495.799,109.172,488.201,104.485,483.515 C99.799,478.828,92.201,478.828,87.5147,483.515"/><path fill="#fff" d="M384,804 L324,864 L324,552 L36,552 L96,492 L384,492 L384,804 Z"/><path fill="#b8f" fill-rule="evenodd" d="M324,876 L36,876 L36,876 C29.3726,876,24,870.627,24,864 L24,552 L24,552 C24,545.373,29.3726,540,36,540 L324,540 L324,540 C330.627,540,336,545.373,336,552 L336,864 L336,864 C336,870.627,330.627,876,324,876 Z"/><path fill="none" stroke="#90f" stroke-width="12" stroke-linecap="round" d="M48,552 L48,864"/><path fill="none" stroke="#000" d="M372,816 L372,504 L84,504"/><path fill="none" stroke="#000" d="M360,828 L360,516 L72,516"/><path fill="none" stroke="#000" d="M348,840 L348,528 L60,528"/><path d="M488.066,521.352 L533.652,521.352 L533.652,528.305 L514.629,528.305 L514.629,576 L506.777,576 L506.777,528.305 L488.066,528.305 Z M552.637,554.398 L552.637,569.672 Q552.637,571.508,553.887,571.508 Q555.176,571.508,557.91,569.594 L557.91,573.93 Q555.488,575.492,554.023,576.059 Q552.559,576.625,550.957,576.625 Q546.387,576.625,545.566,573.031 Q541.035,576.547,535.918,576.547 Q532.168,576.547,529.668,574.066 Q527.168,571.586,527.168,567.836 Q527.168,564.438,529.609,561.762 Q532.051,559.086,536.543,557.523 L545.645,554.398 L545.645,552.484 Q545.645,546,539.16,546 Q533.34,546,527.832,552.016 L527.832,544.242 Q531.973,539.359,539.746,539.359 Q545.566,539.359,549.082,542.406 Q550.254,543.383,551.191,545.004 Q552.129,546.625,552.383,548.246 Q552.637,549.867,552.637,554.398 Z M545.645,568.891 L545.645,558.227 L540.879,560.062 Q537.246,561.508,535.742,562.973 Q534.238,564.438,534.238,566.625 Q534.238,568.852,535.664,570.258 Q537.09,571.664,539.355,571.664 Q542.754,571.664,545.645,568.891 Z M562.363,552.484 Q562.363,546.742,566.562,543.402 Q570.762,540.062,578.027,540.062 L592.832,540.062 L592.832,545.609 L585.566,545.609 Q587.676,547.758,588.496,549.516 Q589.316,551.273,589.316,553.539 Q589.316,556.352,587.715,559.066 Q586.113,561.781,583.594,563.227 Q581.074,564.672,575.332,565.531 Q571.309,566.117,571.309,568.305 Q571.309,569.555,572.812,570.355 Q574.316,571.156,578.262,572.016 Q584.863,573.461,586.758,574.281 Q588.652,575.102,590.176,576.625 Q592.754,579.203,592.754,583.109 Q592.754,588.227,588.203,591.273 Q583.652,594.32,576.035,594.32 Q568.34,594.32,563.75,591.254 Q559.16,588.188,559.16,583.031 Q559.16,575.727,568.184,573.617 Q564.59,571.312,564.59,569.047 Q564.59,567.328,566.133,565.922 Q567.676,564.516,570.293,563.852 Q562.363,560.336,562.363,552.484 Z M575.723,546.234 Q572.832,546.234,570.801,548.188 Q568.77,550.141,568.77,552.875 Q568.77,555.648,570.762,557.465 Q572.754,559.281,575.801,559.281 Q578.809,559.281,580.82,557.426 Q582.832,555.57,582.832,552.797 Q582.832,549.984,580.801,548.109 Q578.77,546.234,575.723,546.234 Z M574.043,577.68 Q570.449,577.68,568.164,579.203 Q565.879,580.727,565.879,583.109 Q565.879,588.656,575.879,588.656 Q580.605,588.656,583.203,587.27 Q585.801,585.883,585.801,583.344 Q585.801,580.844,582.52,579.262 Q579.238,577.68,574.043,577.68 Z"/><path d="M526.402,653.43 L535.855,653.43 L515.699,679.133 L515.699,708 L507.691,708 L507.691,679.133 L487.535,653.43 L496.988,653.43 L511.598,672.258 Z M546.871,671.984 Q555.074,671.984,560.504,677.277 Q565.934,682.57,565.934,690.578 Q565.934,698.352,560.426,703.488 Q554.918,708.625,546.559,708.625 Q538.473,708.625,533.043,703.41 Q527.613,698.195,527.613,690.383 Q527.613,682.492,533.102,677.238 Q538.59,671.984,546.871,671.984 Z M546.48,678.391 Q541.363,678.391,538.082,681.75 Q534.801,685.109,534.801,690.305 Q534.801,695.461,538.16,698.723 Q541.52,701.984,546.793,701.984 Q552.027,701.984,555.367,698.684 Q558.707,695.383,558.707,690.227 Q558.707,685.109,555.23,681.75 Q551.754,678.391,546.48,678.391 Z M596.715,708 L596.715,703.43 Q594.449,705.891,591.539,707.258 Q588.629,708.625,585.738,708.625 Q582.34,708.625,579.469,706.926 Q576.598,705.227,575.133,702.316 Q573.668,699.406,573.668,692.648 L573.668,672.062 L580.777,672.062 L580.777,692.57 Q580.777,698.234,582.398,700.48 Q584.02,702.727,588.082,702.727 Q593.16,702.727,596.715,697.766 L596.715,672.062 L603.824,672.062 L603.824,708 Z M621.441,672.062 L621.441,680.305 L621.832,679.68 Q626.988,671.359,632.145,671.359 Q636.168,671.359,640.543,675.422 L636.793,681.672 Q633.082,678.156,629.918,678.156 Q626.48,678.156,623.961,681.438 Q621.441,684.719,621.441,689.211 L621.441,708 L614.293,708 L614.293,672.062 Z"/><path d="M511.281,840 L492.805,840 L492.805,785.43 L507.102,785.43 Q513.859,785.43,517.648,787.246 Q521.438,789.062,523.43,792.246 Q525.422,795.43,525.422,799.609 Q525.422,807.656,517.102,811.133 Q523.078,812.266,526.613,816.055 Q530.148,819.844,530.148,825.117 Q530.148,829.297,528,832.578 Q525.852,835.859,521.691,837.93 Q517.531,840,511.281,840 Z M507.336,792.383 L500.617,792.383 L500.617,808.789 L505.812,808.789 Q512.062,808.789,514.699,806.406 Q517.336,804.023,517.336,800.234 Q517.336,792.383,507.336,792.383 Z M507.922,815.742 L500.617,815.742 L500.617,833.047 L508.312,833.047 Q514.719,833.047,517.004,832.051 Q519.289,831.055,520.676,828.945 Q522.062,826.836,522.062,824.414 Q522.062,821.914,520.598,819.844 Q519.133,817.773,516.438,816.758 Q513.742,815.742,507.922,815.742 Z M554.055,803.984 Q562.258,803.984,567.688,809.277 Q573.117,814.57,573.117,822.578 Q573.117,830.352,567.609,835.488 Q562.102,840.625,553.742,840.625 Q545.656,840.625,540.227,835.41 Q534.797,830.195,534.797,822.383 Q534.797,814.492,540.285,809.238 Q545.773,803.984,554.055,803.984 Z M553.664,810.391 Q548.547,810.391,545.266,813.75 Q541.984,817.109,541.984,822.305 Q541.984,827.461,545.344,830.723 Q548.703,833.984,553.977,833.984 Q559.211,833.984,562.551,830.684 Q565.891,827.383,565.891,822.227 Q565.891,817.109,562.414,813.75 Q558.938,810.391,553.664,810.391 Z M598.195,803.984 Q606.398,803.984,611.828,809.277 Q617.258,814.57,617.258,822.578 Q617.258,830.352,611.75,835.488 Q606.242,840.625,597.883,840.625 Q589.797,840.625,584.367,835.41 Q578.938,830.195,578.938,822.383 Q578.938,814.492,584.426,809.238 Q589.914,803.984,598.195,803.984 Z M597.805,810.391 Q592.688,810.391,589.406,813.75 Q586.125,817.109,586.125,822.305 Q586.125,827.461,589.484,830.723 Q592.844,833.984,598.117,833.984 Q603.352,833.984,606.691,830.684 Q610.031,827.383,610.031,822.227 Q610.031,817.109,606.555,813.75 Q603.078,810.391,597.805,810.391 Z M648.508,804.062 L656.984,804.062 L641.633,821.68 L660.109,840 L650.578,840 L632.57,821.68 Z M625.148,785.43 L632.258,785.43 L632.258,840 L625.148,840 Z M661.711,837.422 L661.711,829.766 Q664.719,831.875,667.863,833.184 Q671.008,834.492,673.156,834.492 Q675.383,834.492,676.984,833.398 Q678.586,832.305,678.586,830.781 Q678.586,829.219,677.551,828.184 Q676.516,827.148,673.078,825.195 Q666.203,821.367,664.074,818.652 Q661.945,815.938,661.945,812.734 Q661.945,808.594,665.168,805.977 Q668.391,803.359,673.469,803.359 Q678.742,803.359,684.289,806.328 L684.289,813.359 Q677.961,809.531,673.938,809.531 Q671.867,809.531,670.598,810.41 Q669.328,811.289,669.328,812.734 Q669.328,813.984,670.48,815.117 Q671.633,816.25,674.523,817.852 L677.062,819.297 Q686.047,824.375,686.047,830.547 Q686.047,834.961,682.59,837.793 Q679.133,840.625,673.703,840.625 Q670.5,840.625,668,839.941 Q665.5,839.258,661.711,837.422 Z"/><path fill="none" stroke="#000" stroke-width="6" d="M444,492 L444,612"/><path fill="none" stroke="#000" stroke-width="6" d="M444,624 L444,744"/><path fill="none" stroke="#000" stroke-width="6" d="M444,756 L444,876"/><g><path fill="none" stroke="#000" stroke-width="6" d="M444,552 L204,636"/><path d="M196.567,638.602 C195.13,634.496,197.293,630.004,201.398,628.567 C205.504,627.13,209.996,629.293,211.433,633.398 C212.87,637.504,210.707,641.996,206.602,643.433 C202.496,644.87,198.004,642.707,196.567,638.602"/></g><g><path fill="none" stroke="#000" stroke-width="6" d="M444,684 L372,612"/><path d="M366.432,606.432 C369.507,603.356,374.493,603.356,377.568,606.432 C380.644,609.507,380.644,614.493,377.568,617.568 C374.493,620.644,369.507,620.644,366.432,617.568 C363.356,614.493,363.356,609.507,366.432,606.432"/></g><g><path fill="none" stroke="#000" stroke-width="6" d="M444,816 L348,756"/><path d="M341.322,751.826 C343.627,748.138,348.486,747.017,352.174,749.322 C355.862,751.627,356.983,756.486,354.678,760.174 C352.373,763.862,347.514,764.983,343.826,762.678 C340.138,760.373,339.017,755.514,341.322,751.826"/></g><path d="M12,888 L732,888 L732,1308 L12,1308 L12,888 Z"/><path fill="#f88" fill-rule="evenodd" d="M708,1296 L468,1296 C461.373,1296,456,1290.63,456,1284 L456,1188 C456,1181.37,461.373,1176,468,1176 L708,1176 C714.627,1176,720,1181.37,720,1188 L720,1284 C720,1290.63,714.627,1296,708,1296 Z"/><path fill="#fb8" fill-rule="evenodd" d="M660,1164 L468,1164 C461.373,1164,456,1158.63,456,1152 L456,1056 C456,1049.37,461.373,1044,468,1044 L660,1044 C666.627,1044,672,1049.37,672,1056 L672,1152 C672,1158.63,666.627,1164,660,1164 Z"/><path fill="#6c6" d="M624,1032 L468,1032 C461.373,1032,456,1026.63,456,1020 L456,924 C456,917.373,461.373,912,468,912 L624,912 C630.627,912,636,917.373,636,924 L636,1020 C636,1026.63,630.627,1032,624,1032 Z"/><path fill="#b8f" fill-rule="evenodd" d="M384,1236 L96,1236 L96,1236 C89.3726,1236,84,1230.63,84,1224 L84,912 L84,912 C84,905.373,89.3726,900,96,900 L384,900 L384,900 C390.627,900,396,905.373,396,912 L396,1224 L396,1224 C396,1230.63,390.627,1236,384,1236 Z"/><path fill="#b8f" d="M87.5147,903.515 L27.5147,963.515 C22.8284,968.201,22.8284,975.799,27.5147,980.485 C32.201,985.172,39.799,985.172,44.4853,980.485 L104.485,920.485 C109.172,915.799,109.172,908.201,104.485,903.515 C99.799,898.828,92.201,898.828,87.5147,903.515"/><path fill="#fff" d="M384,1224 L324,1284 L324,972 L36,972 L96,912 L384,912 L384,1224 Z"/><path fill="#b8f" fill-rule="evenodd" d="M324,1296 L36,1296 L36,1296 C29.3726,1296,24,1290.63,24,1284 L24,972 L24,972 C24,965.373,29.3726,960,36,960 L324,960 L324,960 C330.627,960,336,965.373,336,972 L336,1284 L336,1284 C336,1290.63,330.627,1296,324,1296 Z"/><path fill="none" stroke="#90f" stroke-width="12" stroke-linecap="round" d="M48,972 L48,1284"/><path fill="none" stroke="#000" d="M372,1236 L372,924 L84,924"/><path fill="none" stroke="#000" d="M360,1248 L360,936 L72,936"/><path fill="none" stroke="#000" d="M348,1260 L348,948 L60,948"/><text font-family="Gill Sans" font-size="80" text-anchor="middle" transform="matrix(1,0,0,1,540,996)" xml:space="preserve"><tspan>Tag</tspan></text><text font-family="Gill Sans" font-size="80" text-anchor="middle" transform="matrix(1,0,0,1,564,1128)" xml:space="preserve"><tspan>Your</tspan></text><text font-family="Gill Sans" font-size="80" text-anchor="middle" transform="matrix(1,0,0,1,588,1260)" xml:space="preserve"><tspan>Books</tspan></text><path fill="none" stroke="#808080" stroke-width="6" d="M444,912 L444,1032"/><path fill="none" stroke="#808080" stroke-width="6" d="M444,1044 L444,1164"/><path fill="none" stroke="#808080" stroke-width="6" d="M444,1176 L444,1296"/><g><path fill="none" stroke="#808080" stroke-width="6" d="M444,972 L204,1056"/><path fill="#808080" d="M196.567,1058.6 C195.13,1054.5,197.293,1050,201.398,1048.57 C205.504,1047.13,209.996,1049.29,211.433,1053.4 C212.87,1057.5,210.707,1062,206.602,1063.43 C202.496,1064.87,198.004,1062.71,196.567,1058.6"/></g><g><path fill="none" stroke="#808080" stroke-width="6" d="M444,1104 L372,1032"/><path fill="#808080" d="M366.432,1026.43 C369.507,1023.36,374.493,1023.36,377.568,1026.43 C380.644,1029.51,380.644,1034.49,377.568,1037.57 C374.493,1040.64,369.507,1040.64,366.432,1037.57 C363.356,1034.49,363.356,1029.51,366.432,1026.43"/></g><g><path fill="none" stroke="#808080" stroke-width="6" d="M444,1236 L348,1224"/><path fill="#808080" d="M340.186,1223.02 C340.725,1218.71,344.661,1215.65,348.977,1216.19 C353.292,1216.73,356.354,1220.66,355.814,1224.98 C355.275,1229.29,351.339,1232.35,347.023,1231.81 C342.708,1231.27,339.646,1227.34,340.186,1223.02"/></g><text font-family="Gill Sans" font-size="80" text-anchor="middle" transform="matrix(1,0,0,1,900,540)" xml:space="preserve"><tspan>Tag</tspan></text><text font-family="Gill Sans" font-size="80" text-anchor="middle" transform="matrix(1,0,0,1,924,672)" xml:space="preserve"><tspan>Your</tspan></text><text font-family="Gill Sans" font-size="80" text-anchor="middle" transform="matrix(1,0,0,1,948,804)" xml:space="preserve"><tspan>Books</tspan></text><g><path fill="#fff" d="M744,876 L1104,876 L1104,1086 L744,1086 L744,876 Z"/><path fill="#f88" fill-rule="evenodd" d="M1092,1080 L972,1080 C968.686,1080,966,1077.31,966,1074 L966,1026 C966,1022.69,968.686,1020,972,1020 L1092,1020 C1095.31,1020,1098,1022.69,1098,1026 L1098,1074 C1098,1077.31,1095.31,1080,1092,1080 Z"/><path fill="#fb8" fill-rule="evenodd" d="M1068,1014 L972,1014 C968.686,1014,966,1011.31,966,1008 L966,960 C966,956.686,968.686,954,972,954 L1068,954 C1071.31,954,1074,956.686,1074,960 L1074,1008 C1074,1011.31,1071.31,1014,1068,1014 Z"/><path fill="#6c6" d="M1050,948 L972,948 C968.686,948,966,945.314,966,942 L966,894 C966,890.686,968.686,888,972,888 L1050,888 C1053.31,888,1056,890.686,1056,894 L1056,942 C1056,945.314,1053.31,948,1050,948 Z"/><path fill="#b8f" fill-rule="evenodd" d="M930,1050 L786,1050 L786,1050 C782.686,1050,780,1047.31,780,1044 L780,888 L780,888 C780,884.686,782.686,882,786,882 L930,882 L930,882 C933.314,882,936,884.686,936,888 L936,1044 L936,1044 C936,1047.31,933.314,1050,930,1050 Z"/><path fill="#b8f" d="M781.757,883.757 L751.757,913.757 C749.414,916.101,749.414,919.899,751.757,922.243 C754.101,924.586,757.899,924.586,760.243,922.243 L790.243,892.243 C792.586,889.899,792.586,886.101,790.243,883.757 C787.899,881.414,784.101,881.414,781.757,883.757"/><path fill="#fff" d="M930,1044 L900,1074 L900,918 L756,918 L786,888 L930,888 L930,1044 Z"/><path fill="#b8f" fill-rule="evenodd" d="M900,1080 L756,1080 L756,1080 C752.686,1080,750,1077.31,750,1074 L750,918 L750,918 C750,914.686,752.686,912,756,912 L900,912 L900,912 C903.314,912,906,914.686,906,918 L906,1074 L906,1074 C906,1077.31,903.314,1080,900,1080 Z"/><path fill="none" stroke="#90f" stroke-width="6" stroke-linecap="round" d="M762,918 L762,1074"/><path fill="none" stroke="#000" stroke-width="0.5" d="M924,1050 L924,894 L780,894"/><path fill="none" stroke="#000" stroke-width="0.5" d="M918,1056 L918,900 L774,900"/><path fill="none" stroke="#000" stroke-width="0.5" d="M912,1062 L912,906 L768,906"/><path d="M982.033,902.676 L1004.83,902.676 L1004.83,906.152 L995.314,906.152 L995.314,930 L991.389,930 L991.389,906.152 L982.033,906.152 Z M1014.32,919.199 L1014.32,926.836 Q1014.32,927.754,1014.94,927.754 Q1015.59,927.754,1016.96,926.797 L1016.96,928.965 Q1015.74,929.746,1015.01,930.029 Q1014.28,930.312,1013.48,930.312 Q1011.19,930.312,1010.78,928.516 Q1008.52,930.273,1005.96,930.273 Q1004.08,930.273,1002.83,929.033 Q1001.58,927.793,1001.58,925.918 Q1001.58,924.219,1002.8,922.881 Q1004.03,921.543,1006.27,920.762 L1010.82,919.199 L1010.82,918.242 Q1010.82,915,1007.58,915 Q1004.67,915,1001.92,918.008 L1001.92,914.121 Q1003.99,911.68,1007.87,911.68 Q1010.78,911.68,1012.54,913.203 Q1013.13,913.691,1013.6,914.502 Q1014.06,915.312,1014.19,916.123 Q1014.32,916.934,1014.32,919.199 Z M1010.82,926.445 L1010.82,921.113 L1008.44,922.031 Q1006.62,922.754,1005.87,923.486 Q1005.12,924.219,1005.12,925.312 Q1005.12,926.426,1005.83,927.129 Q1006.54,927.832,1007.68,927.832 Q1009.38,927.832,1010.82,926.445 Z M1019.18,918.242 Q1019.18,915.371,1021.28,913.701 Q1023.38,912.031,1027.01,912.031 L1034.42,912.031 L1034.42,914.805 L1030.78,914.805 Q1031.84,915.879,1032.25,916.758 Q1032.66,917.637,1032.66,918.77 Q1032.66,920.176,1031.86,921.533 Q1031.06,922.891,1029.8,923.613 Q1028.54,924.336,1025.67,924.766 Q1023.65,925.059,1023.65,926.152 Q1023.65,926.777,1024.41,927.178 Q1025.16,927.578,1027.13,928.008 Q1030.43,928.73,1031.38,929.141 Q1032.33,929.551,1033.09,930.312 Q1034.38,931.602,1034.38,933.555 Q1034.38,936.113,1032.1,937.637 Q1029.83,939.16,1026.02,939.16 Q1022.17,939.16,1019.88,937.627 Q1017.58,936.094,1017.58,933.516 Q1017.58,929.863,1022.09,928.809 Q1020.29,927.656,1020.29,926.523 Q1020.29,925.664,1021.07,924.961 Q1021.84,924.258,1023.15,923.926 Q1019.18,922.168,1019.18,918.242 Z M1025.86,915.117 Q1024.42,915.117,1023.4,916.094 Q1022.38,917.07,1022.38,918.438 Q1022.38,919.824,1023.38,920.732 Q1024.38,921.641,1025.9,921.641 Q1027.4,921.641,1028.41,920.713 Q1029.42,919.785,1029.42,918.398 Q1029.42,916.992,1028.4,916.055 Q1027.38,915.117,1025.86,915.117 Z M1025.02,930.84 Q1023.22,930.84,1022.08,931.602 Q1020.94,932.363,1020.94,933.555 Q1020.94,936.328,1025.94,936.328 Q1028.3,936.328,1029.6,935.635 Q1030.9,934.941,1030.9,933.672 Q1030.9,932.422,1029.26,931.631 Q1027.62,930.84,1025.02,930.84 Z"/><path d="M1001.2,968.715 L1005.93,968.715 L995.85,981.566 L995.85,996 L991.846,996 L991.846,981.566 L981.768,968.715 L986.494,968.715 L993.799,978.129 Z M1011.44,977.992 Q1015.54,977.992,1018.25,980.639 Q1020.97,983.285,1020.97,987.289 Q1020.97,991.176,1018.21,993.744 Q1015.46,996.312,1011.28,996.312 Q1007.24,996.312,1004.52,993.705 Q1001.81,991.098,1001.81,987.191 Q1001.81,983.246,1004.55,980.619 Q1007.29,977.992,1011.44,977.992 Z M1011.24,981.195 Q1008.68,981.195,1007.04,982.875 Q1005.4,984.555,1005.4,987.152 Q1005.4,989.73,1007.08,991.361 Q1008.76,992.992,1011.4,992.992 Q1014.01,992.992,1015.68,991.342 Q1017.35,989.691,1017.35,987.113 Q1017.35,984.555,1015.62,982.875 Q1013.88,981.195,1011.24,981.195 Z M1036.36,996 L1036.36,993.715 Q1035.22,994.945,1033.77,995.629 Q1032.31,996.312,1030.87,996.312 Q1029.17,996.312,1027.73,995.463 Q1026.3,994.613,1025.57,993.158 Q1024.83,991.703,1024.83,988.324 L1024.83,978.031 L1028.39,978.031 L1028.39,988.285 Q1028.39,991.117,1029.2,992.24 Q1030.01,993.363,1032.04,993.363 Q1034.58,993.363,1036.36,990.883 L1036.36,978.031 L1039.91,978.031 L1039.91,996 Z M1048.72,978.031 L1048.72,982.152 L1048.92,981.84 Q1051.49,977.68,1054.07,977.68 Q1056.08,977.68,1058.27,979.711 L1056.4,982.836 Q1054.54,981.078,1052.96,981.078 Q1051.24,981.078,1049.98,982.719 Q1048.72,984.359,1048.72,986.605 L1048.72,996 L1045.15,996 L1045.15,978.031 Z"/><path d="M993.641,1062 L984.402,1062 L984.402,1034.71 L991.551,1034.71 Q994.93,1034.71,996.824,1035.62 Q998.719,1036.53,999.715,1038.12 Q1000.71,1039.71,1000.71,1041.8 Q1000.71,1045.83,996.551,1047.57 Q999.539,1048.13,1001.31,1050.03 Q1003.07,1051.92,1003.07,1054.56 Q1003.07,1056.65,1002,1058.29 Q1000.93,1059.93,998.846,1060.96 Q996.766,1062,993.641,1062 Z M991.668,1038.19 L988.309,1038.19 L988.309,1046.39 L990.906,1046.39 Q994.031,1046.39,995.35,1045.2 Q996.668,1044.01,996.668,1042.12 Q996.668,1038.19,991.668,1038.19 Z M991.961,1049.87 L988.309,1049.87 L988.309,1058.52 L992.156,1058.52 Q995.359,1058.52,996.502,1058.03 Q997.645,1057.53,998.338,1056.47 Q999.031,1055.42,999.031,1054.21 Q999.031,1052.96,998.299,1051.92 Q997.566,1050.89,996.219,1050.38 Q994.871,1049.87,991.961,1049.87 Z M1015.03,1043.99 Q1019.13,1043.99,1021.84,1046.64 Q1024.56,1049.29,1024.56,1053.29 Q1024.56,1057.18,1021.8,1059.74 Q1019.05,1062.31,1014.87,1062.31 Q1010.83,1062.31,1008.11,1059.71 Q1005.4,1057.1,1005.4,1053.19 Q1005.4,1049.25,1008.14,1046.62 Q1010.89,1043.99,1015.03,1043.99 Z M1014.83,1047.2 Q1012.27,1047.2,1010.63,1048.88 Q1008.99,1050.55,1008.99,1053.15 Q1008.99,1055.73,1010.67,1057.36 Q1012.35,1058.99,1014.99,1058.99 Q1017.61,1058.99,1019.28,1057.34 Q1020.95,1055.69,1020.95,1053.11 Q1020.95,1050.55,1019.21,1048.88 Q1017.47,1047.2,1014.83,1047.2 Z M1037.1,1043.99 Q1041.2,1043.99,1043.91,1046.64 Q1046.63,1049.29,1046.63,1053.29 Q1046.63,1057.18,1043.88,1059.74 Q1041.12,1062.31,1036.94,1062.31 Q1032.9,1062.31,1030.18,1059.71 Q1027.47,1057.1,1027.47,1053.19 Q1027.47,1049.25,1030.21,1046.62 Q1032.96,1043.99,1037.1,1043.99 Z M1036.9,1047.2 Q1034.34,1047.2,1032.7,1048.88 Q1031.06,1050.55,1031.06,1053.15 Q1031.06,1055.73,1032.74,1057.36 Q1034.42,1058.99,1037.06,1058.99 Q1039.68,1058.99,1041.35,1057.34 Q1043.02,1055.69,1043.02,1053.11 Q1043.02,1050.55,1041.28,1048.88 Q1039.54,1047.2,1036.9,1047.2 Z M1062.25,1044.03 L1066.49,1044.03 L1058.82,1052.84 L1068.05,1062 L1063.29,1062 L1054.29,1052.84 Z M1050.57,1034.71 L1054.13,1034.71 L1054.13,1062 L1050.57,1062 Z M1068.86,1060.71 L1068.86,1056.88 Q1070.36,1057.94,1071.93,1058.59 Q1073.5,1059.25,1074.58,1059.25 Q1075.69,1059.25,1076.49,1058.7 Q1077.29,1058.15,1077.29,1057.39 Q1077.29,1056.61,1076.78,1056.09 Q1076.26,1055.57,1074.54,1054.6 Q1071.1,1052.68,1070.04,1051.33 Q1068.97,1049.97,1068.97,1048.37 Q1068.97,1046.3,1070.58,1044.99 Q1072.2,1043.68,1074.73,1043.68 Q1077.37,1043.68,1080.14,1045.16 L1080.14,1048.68 Q1076.98,1046.77,1074.97,1046.77 Q1073.93,1046.77,1073.3,1047.21 Q1072.66,1047.64,1072.66,1048.37 Q1072.66,1048.99,1073.24,1049.56 Q1073.82,1050.12,1075.26,1050.93 L1076.53,1051.65 Q1081.02,1054.19,1081.02,1057.27 Q1081.02,1059.48,1079.29,1060.9 Q1077.57,1062.31,1074.85,1062.31 Q1073.25,1062.31,1072,1061.97 Q1070.75,1061.63,1068.86,1060.71 Z"/><path fill="none" stroke="#000" stroke-width="3" d="M960,888 L960,948"/><path fill="none" stroke="#000" stroke-width="3" d="M960,954 L960,1014"/><path fill="none" stroke="#000" stroke-width="3" d="M960,1020 L960,1080"/><g><path fill="none" stroke="#000" stroke-width="3" d="M960,918 L840,960"/><path d="M835.045,961.734 C834.087,958.998,835.529,956.003,838.266,955.045 C841.002,954.087,843.997,955.529,844.955,958.266 C845.913,961.002,844.471,963.997,841.734,964.955 C838.998,965.913,836.003,964.471,835.045,961.734"/></g><g><path fill="none" stroke="#000" stroke-width="3" d="M960,984 L924,948"/><path d="M920.288,944.288 C922.338,942.237,925.662,942.237,927.712,944.288 C929.763,946.338,929.763,949.662,927.712,951.712 C925.662,953.763,922.338,953.763,920.288,951.712 C918.237,949.662,918.237,946.338,920.288,944.288"/></g><g><path fill="none" stroke="#000" stroke-width="3" d="M960,1050 L912,1020"/><path d="M907.548,1017.22 C909.085,1014.76,912.324,1014.01,914.782,1015.55 C917.241,1017.08,917.989,1020.32,916.452,1022.78 C914.915,1025.24,911.676,1025.99,909.218,1024.45 C906.759,1022.92,906.011,1019.68,907.548,1017.22"/></g></g></svg>
